<svg width="178" height="113" viewBox="0 0 178 113" fill="none" xmlns="http://www.w3.org/2000/svg">
<g clip-path="url(#clip0)">
<path d="M16.6875 15.8906H22.25V19.4219H16.6875V15.8906Z" />
<path d="M36.1562 15.8906H41.7188V19.4219H36.1562V15.8906Z" />
<path d="M130.719 21.1875H136.281V24.7188H130.719V21.1875Z" />
<path d="M150.188 21.1875H155.75V24.7188H150.188V21.1875Z" />
<path d="M44.5 84.75H58.4062V88.2812H44.5V84.75Z" />
<path d="M11.125 84.75H27.8125V88.2812H11.125V84.75Z" />
<path d="M33.375 97.1094H38.9375V100.641H33.375V97.1094Z" />
<path d="M139.062 90.0469H133.5V86.5156C133.5 85.5406 132.255 84.75 130.719 84.75C129.183 84.75 127.938 85.5406 127.938 86.5156V90.0469H122.375V86.5156C122.375 83.5904 126.111 81.2188 130.719 81.2188C135.327 81.2188 139.062 83.5904 139.062 86.5156V90.0469Z" />
<path d="M164.094 90.0469H158.531V86.5156C158.531 85.5406 157.286 84.75 155.75 84.75C154.214 84.75 152.969 85.5406 152.969 86.5156V90.0469H147.406V86.5156C147.406 83.5904 151.142 81.2188 155.75 81.2188C160.358 81.2188 164.094 83.5904 164.094 86.5156V90.0469Z" />
<path d="M27.8125 22.9531C23.2047 22.9531 19.4688 25.3248 19.4688 28.25V33.5469C19.4688 36.4721 23.2047 38.8438 27.8125 38.8438C32.4203 38.8438 36.1562 36.4721 36.1562 33.5469V28.25C36.1562 25.3248 32.4203 22.9531 27.8125 22.9531ZM30.5938 33.5469C30.5938 34.5219 29.3484 35.3125 27.8125 35.3125C26.2766 35.3125 25.0312 34.5219 25.0312 33.5469V28.25C25.0312 27.2749 26.2766 26.4844 27.8125 26.4844C29.3484 26.4844 30.5938 27.2749 30.5938 28.25V33.5469Z" />
<path d="M120.706 18.0089L131.832 12.7128L135.166 15.5372L124.04 20.8323L120.706 18.0089Z" />
<path d="M151.3 15.538L154.636 12.7137L165.761 18.0106L162.425 20.8349L151.3 15.538Z" />
<path d="M133.5 37.0781H139.062V36.1953C139.062 34.7323 140.93 33.5469 143.234 33.5469C145.539 33.5469 147.406 34.7323 147.406 36.1953V37.0781H152.969V36.1953C152.969 32.7822 148.611 30.0156 143.234 30.0156C137.858 30.0156 133.5 32.7822 133.5 36.1953V37.0781Z" />
<path d="M16.0112 77.741L27.1348 75.9736L28.4847 79.3971L17.3611 81.1644L16.0112 77.741Z" />
<path d="M141.844 100.641C137.236 100.641 133.5 98.2689 133.5 95.3438H127.938C127.938 100.219 134.164 104.172 141.844 104.172C149.523 104.172 155.75 100.219 155.75 95.3438H150.188C150.188 98.2689 146.452 100.641 141.844 100.641Z" />
<path d="M139.062 63.5625C138.643 63.5625 138.192 63.5841 137.762 63.5944C139.497 58.9286 139.497 54.0714 137.762 49.4056C138.192 49.4159 138.643 49.4375 139.062 49.4375C160.567 49.4375 178 38.3704 178 24.7188C178 11.0671 160.567 0 139.062 0C117.558 0 100.125 11.0671 100.125 24.7188C100.125 24.9851 100.159 25.2714 100.175 25.5447C92.8256 24.4429 85.1744 24.4429 77.8248 25.5447C77.841 25.2714 77.875 24.9851 77.875 24.7188C77.875 11.0671 60.4419 0 38.9375 0C17.4331 0 0 11.0671 0 24.7188C0 38.3704 17.4331 49.4375 38.9375 49.4375C39.3598 49.4375 39.808 49.4159 40.2385 49.4056C38.5029 54.0714 38.5029 58.9286 40.2385 63.5944C39.808 63.5841 39.3598 63.5625 38.9375 63.5625C17.4331 63.5625 0 74.6296 0 88.2812C0 101.933 17.4331 113 38.9375 113C60.4419 113 77.875 101.933 77.875 88.2812C77.875 88.0149 77.841 87.7286 77.8248 87.4553C85.1744 88.5571 92.8256 88.5571 100.175 87.4553C100.159 87.7286 100.125 88.0149 100.125 88.2812C100.125 101.933 117.558 113 139.062 113C160.567 113 178 101.933 178 88.2812C178 74.6296 160.567 63.5625 139.062 63.5625ZM139.062 3.53125C157.495 3.53125 172.438 13.0172 172.438 24.7188C172.438 36.4203 157.495 45.9062 139.062 45.9062C138.136 45.9062 137.135 45.8606 136.075 45.7933C131.004 36.8652 119.929 29.8346 105.865 26.6154C105.759 25.9421 105.688 25.3067 105.688 24.7188C105.708 13.0223 120.638 3.54418 139.062 3.53125ZM38.9375 45.9062C20.5049 45.9062 5.5625 36.4203 5.5625 24.7188C5.5625 13.0172 20.5049 3.53125 38.9375 3.53125C57.3701 3.53125 72.3125 13.0172 72.3125 24.7188C72.3125 25.3067 72.2405 25.9421 72.1346 26.6154C58.0708 29.8346 46.9961 36.8652 41.9252 45.7933C40.8645 45.8606 39.8637 45.9062 38.9375 45.9062ZM61.1875 104.029V91.8125H55.625V106.603C53.8541 107.254 51.9923 107.8 50.0625 108.232V91.8125H44.5V109.149C38.9076 109.785 33.1496 109.469 27.8125 108.232V91.8125H22.25V106.601C20.2618 105.868 18.3973 105.006 16.6875 104.029V91.8125H11.125V99.9682C4.32805 93.4669 3.71558 85.1199 9.53067 78.2462C15.3471 71.3725 26.6473 67.0869 38.9375 67.0938C39.8637 67.0938 40.8645 67.1394 41.9252 67.2067C46.9961 76.1348 58.0708 83.1654 72.1346 86.3846C72.2405 87.0579 72.3125 87.6933 72.3125 88.2812C72.3057 94.2971 68.2601 100.025 61.1875 104.029ZM89 84.75C64.4237 84.75 44.5 72.1018 44.5 56.5C44.5 40.8982 64.4237 28.25 89 28.25C113.576 28.25 133.5 40.8982 133.5 56.5C133.471 72.0941 113.564 84.7319 89 84.75ZM139.062 109.469C120.638 109.456 105.708 99.9777 105.688 88.2812C105.688 87.6933 105.759 87.0579 105.865 86.3846C119.929 83.1654 131.004 76.1348 136.075 67.2067C137.135 67.1394 138.136 67.0938 139.062 67.0938C157.495 67.0938 172.438 76.5797 172.438 88.2812C172.438 99.9828 157.495 109.469 139.062 109.469Z" />
<path d="M69.5312 68.8594C69.5312 75.6857 78.2471 81.2188 89 81.2188C99.7529 81.2188 108.469 75.6857 108.469 68.8594V63.5625H69.5312V68.8594ZM89 77.6875C85.3238 77.6884 81.797 76.7616 79.1964 75.1115C85.5764 73.8312 92.4236 73.8312 98.8036 75.1115C96.203 76.7616 92.6762 77.6884 89 77.6875ZM75.0938 67.0938H102.906V68.8594C102.899 69.9594 102.565 71.0483 101.922 72.0691C93.5616 70.187 84.4384 70.187 76.0783 72.0691C75.4346 71.0483 75.1005 69.9594 75.0938 68.8594V67.0938Z" />
<path d="M68.4883 40.9965L65.0117 43.7535L76.2033 49.4375L65.0117 55.1215L68.4883 57.8785L85.1092 49.4375L68.4883 40.9965Z" />
<path d="M109.512 40.9965L92.8907 49.4375L109.512 57.8785L112.988 55.1215L101.797 49.4375L112.988 43.7535L109.512 40.9965Z" />
<path d="M86.2188 0H91.7812V14.125H86.2188V0Z" />
<path d="M97.3438 0H102.906V7.0625H97.3438V0Z" />
<path d="M75.0938 0H80.6562V7.0625H75.0938V0Z" />
<path d="M86.2188 98.875H91.7812V113H86.2188V98.875Z" />
<path d="M97.3438 105.938H102.906V113H97.3438V105.938Z" />
<path d="M75.0938 105.938H80.6562V113H75.0938V105.938Z" />
</g>
<defs>
<clipPath id="clip0">
<rect width="178" height="113" />
</clipPath>
</defs>
</svg>
